<svg width="128" height="43" viewBox="0 0 128 43" fill="none" xmlns="http://www.w3.org/2000/svg">
<path d="M127.051 31.356C126.425 31.984 125.565 32.3765 124.626 32.3765C123.765 32.3765 122.905 31.984 122.2 31.356C121.575 30.7281 121.183 29.8646 121.183 29.0011C121.183 27.2741 122.826 25.5471 124.626 25.5471C125.486 25.5471 126.347 25.9396 126.973 26.5676C127.599 27.1956 127.99 28.1376 127.99 29.0011C128.068 29.8646 127.677 30.7281 127.051 31.356Z" fill="#61C2B7"/>
<path d="M99.1274 33.8461C97.8601 33.1362 97.3057 31.5587 98.0185 30.2178C98.7314 28.9557 100.315 28.4825 101.583 29.1135C102.85 29.8234 103.404 31.4009 102.692 32.7418C102.612 32.9784 102.375 33.1362 102.216 33.3728C101.424 34.1616 100.157 34.3982 99.1274 33.8461Z" fill="#00B0A2"/>
<path d="M110.804 31.4292C109.415 30.3132 109.183 28.2407 110.187 26.8059C111.267 25.3711 113.274 25.132 114.663 26.2479C116.052 27.3639 116.284 29.4364 115.203 30.8712C115.126 30.9509 115.049 31.1103 114.972 31.19C113.891 32.306 112.116 32.4654 110.804 31.4292Z" fill="#61C2B7"/>
<path d="M90.8955 36.8963C90.5745 37.2043 90.0931 37.4352 89.5314 37.4352C89.0499 37.4352 88.5684 37.2043 88.1672 36.8963C87.8463 36.5884 87.6055 36.1265 87.6055 35.6646C87.6055 34.6639 88.4882 33.894 89.4511 33.894C89.9326 33.894 90.414 34.048 90.8153 34.4329C91.1362 34.7408 91.377 35.2797 91.377 35.7416C91.4572 36.1265 91.2165 36.5884 90.8955 36.8963Z" fill="#009D8F"/>
<path d="M5.798 31.6789C6.42481 31.0518 6.81657 30.1896 6.81657 29.249C6.81657 28.3867 6.42481 27.5245 5.798 26.8191C5.17119 26.192 4.30932 25.8 3.44746 25.8C1.72373 25.8 0 27.4461 0 29.249C0 30.1112 0.391757 30.9734 1.01857 31.6005C1.64538 32.2276 2.58559 32.6195 3.44746 32.6195C4.30932 32.6979 5.17119 32.306 5.798 31.6789Z" fill="#61C2B7"/>
<path d="M29.5304 33.598C29.3744 33.7557 29.1404 33.9135 28.9065 34.0713C27.6586 34.7813 26.0208 34.308 25.3189 32.9668C24.617 31.7046 25.0849 30.0479 26.4108 29.4167C27.6586 28.7067 29.2964 29.18 29.9983 30.5212C30.5443 31.4679 30.3103 32.7302 29.5304 33.598Z" fill="#00B0A2"/>
<path d="M17.9799 31.4366C17.9006 31.5163 17.8214 31.596 17.6629 31.6758C16.2367 32.7916 14.1767 32.5525 13.0674 31.1178C11.9581 29.6831 12.1958 27.6108 13.622 26.4949C15.0482 25.3791 17.1083 25.6182 18.2175 27.1326C19.2476 28.4078 19.1683 30.2411 17.9799 31.4366Z" fill="#61C2B7"/>
<path d="M90.4543 24.8189C89.1138 24.188 88.483 22.6107 89.1138 21.3488C89.6658 20.0081 91.2428 19.3771 92.5832 19.9292C93.9237 20.5601 94.5545 22.1375 93.9237 23.3993C93.766 23.7148 93.6083 23.9514 93.3717 24.188C92.5832 24.9767 91.4793 25.2921 90.4543 24.8189Z" fill="#009D8F"/>
<path d="M126.753 7.34909C125.895 8.20909 124.804 8.6 123.712 8.6C122.621 8.6 121.529 8.13091 120.672 7.34909C119.814 6.48909 119.347 5.39455 119.425 4.3C119.425 2.11091 121.452 0 123.712 0C124.804 0 125.973 0.390909 126.753 1.25091C127.532 2.03273 128 3.20545 128 4.3C128 5.39455 127.61 6.56727 126.753 7.34909Z" fill="#00B0A2"/>
<path d="M72.3693 21.7063C71.202 21.4002 70.5016 20.2522 70.735 19.1041C71.0463 17.9561 72.1359 17.2673 73.3032 17.4969C74.4705 17.803 75.171 18.951 74.9375 20.0991C74.8597 20.4818 74.6262 20.8644 74.3927 21.094C73.848 21.6298 73.0697 21.8594 72.3693 21.7063Z" fill="#008F80"/>
<path d="M81.4586 16.5189C80.1525 16.0363 79.4611 14.508 79.922 13.1406C80.383 11.7733 81.8428 11.0494 83.1489 11.532C84.455 12.0146 85.1465 13.5428 84.6855 14.9102C84.5318 15.3124 84.3782 15.6341 84.0709 15.8754C83.4562 16.5993 82.3806 16.9211 81.4586 16.5189Z" fill="#009D8F"/>
<path d="M90.7479 13.2714C89.0834 12.4733 88.37 10.3983 89.2419 8.72233C90.1138 7.04637 92.0954 6.3281 93.8392 7.20599C95.5037 8.08387 96.1378 10.1589 95.3451 11.755C95.1866 12.0743 94.9488 12.3935 94.711 12.6329C93.6806 13.6704 92.0161 13.9897 90.7479 13.2714Z" fill="#009D8F"/>
<path d="M100.463 10.7099C98.6532 9.53118 98.1811 7.09523 99.3615 5.28791C100.542 3.48059 102.981 3.00912 104.791 4.1878C106.601 5.44507 107.073 7.88102 105.893 9.68834C105.814 9.92408 105.578 10.0812 105.421 10.2384C104.083 11.4957 102.037 11.81 100.463 10.7099Z" fill="#009D8F"/>
<path d="M110.672 8.40582C109.022 6.99396 108.865 4.48399 110.279 2.91525C111.693 1.26808 114.127 1.03277 115.777 2.44463C117.426 3.85649 117.583 6.28803 116.248 8.01364C116.169 8.09207 116.091 8.17051 116.012 8.24895C114.52 9.66081 112.243 9.73924 110.672 8.40582Z" fill="#00B0A2"/>
<path d="M126.907 19.6459C126.204 20.3499 125.189 20.7411 124.174 20.7411C123.159 20.7411 122.222 20.3499 121.519 19.6459C120.816 18.9418 120.426 18.003 120.426 16.9861C120.426 14.9521 122.222 13.1528 124.252 13.1528C125.189 13.1528 126.204 13.544 126.907 14.248C127.61 14.9521 128 15.9691 128 16.9078C128 18.003 127.61 18.9418 126.907 19.6459Z" fill="#61C2B7"/>
<path d="M71.9307 35.3967C70.8328 35.2394 70.0486 34.2168 70.2054 33.1154C70.3623 32.0141 71.3817 31.2275 72.4796 31.3848C73.5775 31.5421 74.3617 32.5648 74.2049 33.6661C74.1265 34.1381 73.9696 34.5314 73.6559 34.8461C73.2638 35.2394 72.6365 35.4754 71.9307 35.3967Z" fill="#008F80"/>
<path d="M80.7581 29.5049C79.512 29.1138 78.7332 27.784 79.1226 26.5324C79.512 25.2808 80.836 24.4985 82.0822 24.8896C83.3283 25.2808 84.1071 26.6106 83.7177 27.8622C83.5619 28.2533 83.4062 28.6445 83.0946 28.8791C82.4716 29.5049 81.6149 29.7396 80.7581 29.5049Z" fill="#009D8F"/>
<path d="M100.221 21.795C98.7296 20.8599 98.2586 18.9119 99.2007 17.4314C100.143 15.9508 102.105 15.4833 103.518 16.4184C105.01 17.3534 105.481 19.3015 104.539 20.782C104.382 21.0158 104.225 21.1716 104.068 21.3275C103.126 22.3405 101.477 22.5742 100.221 21.795Z" fill="#00B0A2"/>
<path d="M110.562 20.0061C109.077 18.8281 108.921 16.6293 110.093 15.1372C111.265 13.7237 113.452 13.4881 114.858 14.6661C116.342 15.844 116.576 18.0428 115.326 19.4564C115.248 19.5349 115.17 19.6134 115.092 19.6919C113.92 20.9484 111.889 21.1055 110.562 20.0061Z" fill="#00B0A2"/>
<path d="M7.33527 7.35032C8.19365 6.49116 8.58383 5.39769 8.58383 4.30421C8.58383 3.21074 8.11562 2.11727 7.33527 1.25811C6.47689 0.398952 5.3844 -0.069679 4.29191 0.00842623C2.10694 0.00842623 0 2.03916 0 4.30421C0 5.39769 0.390174 6.56926 1.24856 7.35032C2.0289 8.13137 3.19943 8.6 4.29191 8.6C5.46244 8.6 6.55492 8.13137 7.33527 7.35032Z" fill="#00B0A2"/>
<path d="M56.6521 21.3978C56.4229 21.6291 56.0409 21.8604 55.659 21.9375C54.5131 22.2459 53.3672 21.4749 53.0617 20.3184C52.8325 19.1619 53.52 18.0054 54.6659 17.7741C55.8118 17.4657 56.9576 18.2367 57.2632 19.3932C57.416 20.1642 57.1868 20.8581 56.6521 21.3978Z" fill="#008F80"/>
<path d="M47.4427 16.188C47.2133 16.4189 46.9074 16.6499 46.5251 16.8038C45.2253 17.2657 43.7726 16.5729 43.3138 15.2643C42.8551 13.9557 43.5432 12.4932 44.843 12.0314C46.1428 11.5695 47.5956 12.2623 48.0543 13.5709C48.4366 14.4946 48.1308 15.5722 47.4427 16.188Z" fill="#009D8F"/>
<path d="M38.1916 12.9067C37.9596 13.1438 37.6503 13.3018 37.341 13.5388C35.717 14.4079 33.7063 13.6968 32.933 12.0377C32.0824 10.3785 32.7783 8.32424 34.4023 7.45514C36.0263 6.58605 38.037 7.29713 38.8103 8.95631C39.429 10.2995 39.1196 11.8796 38.1916 12.9067Z" fill="#009D8F"/>
<path d="M28.3966 10.5136C28.2397 10.6713 28.0044 10.9078 27.8476 10.9867C26.0436 12.1693 23.6123 11.6962 22.3574 9.8829C21.1809 8.06956 21.6515 5.6255 23.4554 4.44288C25.2593 3.26027 27.6907 3.73332 28.8672 5.54666C29.9652 7.20231 29.6515 9.25217 28.3966 10.5136Z" fill="#009D8F"/>
<path d="M17.8272 8.70334C17.7489 8.7817 17.6706 8.86006 17.5923 8.93843C15.9482 10.349 13.443 10.1139 12.0338 8.46825C10.6246 6.82262 10.8594 4.31499 12.5035 2.98282C14.1476 1.57228 16.5745 1.729 17.9837 3.37463C19.3147 5.02026 19.2364 7.2928 17.8272 8.70334Z" fill="#00B0A2"/>
<path d="M6.48081 19.8988C7.18355 19.1947 7.57396 18.1777 7.57396 17.1608C7.57396 16.1438 7.18355 15.205 6.48081 14.501C5.77808 13.7969 4.84109 13.4058 3.82602 13.4058C1.79589 13.4058 0 15.205 0 17.239C0 18.1777 0.390411 19.1947 1.09315 19.8988C1.79589 20.6029 2.81096 20.994 3.74794 20.994C4.84109 20.994 5.85616 20.6029 6.48081 19.8988Z" fill="#61C2B7"/>
<path d="M57.2499 35.0947C56.9359 35.409 56.5433 35.5661 56.0722 35.6447C54.9729 35.8018 53.9522 35.0162 53.7952 33.9162C53.6381 32.8162 54.4233 31.7948 55.5225 31.6377C56.6218 31.4806 57.6425 32.2662 57.7996 33.3662C57.8781 34.0733 57.6425 34.7019 57.2499 35.0947Z" fill="#008F80"/>
<path d="M48.2646 29.1218C47.9523 29.434 47.64 29.59 47.2496 29.7461C46.0003 30.1362 44.673 29.3559 44.2826 28.1075C43.8922 26.7809 44.673 25.4544 45.9222 25.1423C47.1715 24.7522 48.4988 25.5325 48.8892 26.7809C49.1234 27.6393 48.8892 28.4976 48.2646 29.1218Z" fill="#009D8F"/>
<path d="M38.3233 24.7717C38.0848 25.0117 37.8464 25.1717 37.5285 25.3318C36.1774 25.8919 34.5879 25.3318 34.0316 23.9715C33.4753 22.6112 34.1111 21.0108 35.4622 20.4507C36.8132 19.8906 38.4027 20.4507 38.9591 21.811C39.3564 22.8512 39.0385 23.9715 38.3233 24.7717Z" fill="#009D8F"/>
<path d="M28.3486 21.8052C28.1917 21.9625 27.9564 22.1198 27.7995 22.2771C26.3093 23.2209 24.3486 22.749 23.4074 21.2546C22.5446 19.7602 23.0152 17.7939 24.427 16.9288C25.9172 15.9849 27.878 16.4568 28.8191 17.9512C29.6035 19.131 29.3682 20.7041 28.3486 21.8052Z" fill="#00B0A2"/>
<path d="M17.4135 20.2269C17.335 20.3058 17.2566 20.3848 17.1781 20.4637C15.7659 21.6476 13.5691 21.4897 12.3922 19.9901C11.2153 18.5695 11.3723 16.3596 12.863 15.1757C14.3536 13.9919 16.472 14.2286 17.7273 15.6493C18.7473 16.9121 18.6688 18.9641 17.4135 20.2269Z" fill="#00B0A2"/>
<path d="M39.8566 37.4431C40.164 37.1216 40.3945 36.6392 40.3945 36.0764C40.3945 35.5941 40.164 35.1117 39.8566 34.7097C39.5493 34.3882 39.0883 34.147 38.6272 34.147C37.6284 34.147 36.86 35.0313 36.86 35.996C36.86 36.4784 37.0137 36.9608 37.3978 37.3627C37.7052 37.6843 38.2431 37.9255 38.7041 37.9255C39.0883 38.0059 39.5493 37.7647 39.8566 37.4431Z" fill="#009D8F"/>
<path d="M65.2721 27.7741C64.8837 28.1708 64.4176 28.3295 63.8738 28.3295C63.33 28.3295 62.7862 28.0915 62.4755 27.7741C62.0871 27.3773 61.8541 26.8218 61.8541 26.3457C61.8541 25.2347 62.7862 24.2825 63.8738 24.2825C64.4176 24.2825 64.8837 24.5205 65.2721 24.9173C65.6605 25.3141 65.8935 25.7902 65.8935 26.3457C65.8935 26.9012 65.6605 27.3773 65.2721 27.7741Z" fill="#008F80"/>
<path d="M65.3295 42.4348C65.0072 42.7578 64.5237 42.9999 63.9597 42.9999C63.4763 42.9999 62.9928 42.7578 62.6705 42.4348C62.3482 42.1119 62.1065 41.6276 62.1065 41.0625C62.1065 40.0938 62.9928 39.2058 63.9597 39.2058C64.4432 39.2058 64.9266 39.3673 65.3295 39.7709C65.6518 40.0938 65.8935 40.6589 65.8935 41.1432C65.8935 41.5469 65.6518 42.1119 65.3295 42.4348Z" fill="#008F80"/>
</svg>
